<?xml version="1.0" standalone="no"?>
<!DOCTYPE svg PUBLIC "-//W3C//DTD SVG 20010904//EN"
 "http://www.w3.org/TR/2001/REC-SVG-20010904/DTD/svg10.dtd">
<svg version="1.0" xmlns="http://www.w3.org/2000/svg"
 width="249.000000pt" height="249.000000pt" viewBox="0 0 249.000000 249.000000"
 preserveAspectRatio="xMidYMid meet">

<g transform="translate(0.000000,249.000000) scale(0.100000,-0.100000)"
fill="#000000" stroke="none">
<path d="M217 2456 c-84 -31 -152 -95 -195 -186 -16 -32 -17 -122 -17 -1030
l0 -995 26 -56 c33 -71 87 -125 158 -158 l56 -26 1000 0 1000 0 57 28 c72 35
141 110 165 180 17 49 18 110 18 1032 l0 980 -26 56 c-33 69 -89 127 -155 160
l-49 24 -1000 2 c-823 2 -1007 0 -1038 -11z m621 -557 c30 -17 80 -35 113 -41
63 -11 106 -43 156 -120 53 -79 18 -238 -52 -238 -26 0 -43 18 -55 57 -7 25
-8 26 -9 5 -1 -25 15 -62 33 -75 16 -11 58 1 82 24 l22 20 10 -58 c11 -67 11
-67 -67 -84 -55 -11 -90 -8 -178 17 l-52 14 6 97 6 96 -47 41 c-40 34 -49 49
-57 90 -12 65 6 186 28 186 4 0 31 -14 61 -31z m665 -497 c83 -45 131 -121
206 -327 79 -214 102 -266 140 -308 46 -51 80 -67 141 -67 43 0 50 -3 50 -20
0 -18 -7 -20 -59 -20 -46 0 -66 5 -96 26 -72 49 -109 113 -185 324 -67 184
-108 265 -160 317 -53 54 -93 67 -189 60 -72 -4 -181 -39 -181 -57 0 -5 9 -36
19 -70 17 -54 31 -74 119 -164 100 -102 154 -175 187 -252 14 -30 17 -64 16
-151 -2 -130 1 -133 67 -78 25 22 52 59 68 95 15 33 31 60 37 60 17 0 1 -75
-32 -143 -26 -54 -41 -72 -83 -99 l-51 -33 169 -7 c248 -10 396 -33 343 -53
-85 -31 -661 -51 -1061 -36 -287 11 -437 23 -460 37 -37 23 83 41 342 50 177
7 186 8 207 31 18 19 32 23 83 23 33 0 60 3 60 8 -1 4 -7 36 -15 72 -18 82 -6
139 37 175 18 15 24 25 15 25 -25 0 -57 -33 -71 -74 l-14 -39 -56 53 c-31 29
-66 69 -78 88 l-21 35 -13 -42 c-15 -53 -57 -114 -88 -131 -15 -8 -37 -43 -61
-96 -39 -87 -54 -100 -104 -92 -20 3 -19 7 20 73 23 39 48 95 56 124 8 30 26
76 39 103 14 29 24 65 24 91 0 48 -17 107 -30 107 -12 0 -40 -41 -40 -59 0
-39 -42 -152 -61 -162 -11 -6 -23 -8 -26 -5 -4 3 0 58 7 123 13 114 14 117 51
158 39 42 39 43 33 104 -7 59 11 201 25 201 3 0 31 -9 61 -21 85 -32 180 -24
292 24 147 64 230 69 321 19z"/>
</g>
</svg>
